<svg width="40" height="40" viewBox="0 0 40 40" fill="none" xmlns="http://www.w3.org/2000/svg">
<path fill-rule="evenodd" clip-rule="evenodd" d="M19.9652 8.75C15.9284 8.75 12.6035 11.7205 12.6035 15.426V19.4648C12.5906 19.6145 12.5086 20.4696 12.1917 21.3947C11.8629 22.3547 11.3039 23.3235 10.3743 23.7174L10.367 23.7205L10.3437 23.7322C9.34054 23.9861 8.75 24.8828 8.75 26.0306C8.75076 26.6591 9.00094 27.2615 9.44558 27.7056C9.89021 28.1497 10.493 28.3992 11.1214 28.3992L16.3807 28.3992C16.7801 30.0725 18.3676 31.25 20.2178 31.25C22.0528 31.25 23.6562 30.0713 24.0568 28.3992L28.8064 28.3992L28.8103 28.3991C29.3699 28.3905 29.909 28.1874 30.3352 27.8247C30.7613 27.4619 31.048 26.9622 31.1459 26.4112C31.2439 25.8602 31.147 25.2923 30.872 24.8049C30.6006 24.324 30.1724 23.951 29.6592 23.7481C29.5878 23.7069 29.51 23.6781 29.4292 23.6628C28.5578 23.2288 28.0312 22.2767 27.7203 21.3468C27.4165 20.4383 27.3382 19.6092 27.3269 19.4683V15.426C27.3269 11.7205 24.002 8.75 19.9652 8.75ZM17.9925 28.3992L22.4446 28.3992C22.0897 29.1739 21.2377 29.7189 20.2178 29.7189C19.2044 29.7189 18.3475 29.1739 17.9925 28.3992ZM14.1346 15.426C14.1346 12.6168 16.7234 10.281 19.9652 10.281C23.207 10.281 25.7958 12.6168 25.7958 15.426V19.5217L25.7963 19.5292C25.8021 19.6248 25.8769 20.7049 26.2989 21.9129C26.4378 22.3105 26.6164 22.7278 26.8459 23.1306H19.527C19.324 23.1306 19.1293 23.2113 18.9857 23.3548C18.8421 23.4984 18.7615 23.6931 18.7615 23.8961C18.7615 24.0992 18.8421 24.2939 18.9857 24.4374C19.1293 24.581 19.324 24.6617 19.527 24.6617H27.9893C28.0416 24.6617 28.0934 24.6563 28.1438 24.6459C28.387 24.8275 28.6554 24.9854 28.9518 25.1115C28.9929 25.1307 29.0361 25.1451 29.0806 25.1545C29.2545 25.2088 29.4052 25.3202 29.5083 25.4707C29.6134 25.6243 29.6626 25.8093 29.6476 25.9948L29.6468 26.0045L29.6468 26.0143C29.6463 26.2368 29.5575 26.4501 29.4 26.6072C29.2424 26.7644 29.029 26.8526 28.8064 26.8526H11.1214C10.8989 26.8526 10.6854 26.7644 10.5279 26.6072C10.3704 26.4501 10.2817 26.237 10.281 26.0146C10.2811 25.8536 10.3026 25.6561 10.3776 25.495C10.4472 25.3453 10.559 25.2309 10.7638 25.1938L10.7691 25.1927C10.8397 25.1784 10.908 25.1546 10.9722 25.122L11.0177 25.1021C12.451 24.4766 13.2218 23.102 13.6359 21.9092C14.0456 20.7288 14.1245 19.6733 14.1336 19.5528C14.1359 19.5301 14.1363 19.5073 14.1346 19.4846V15.426Z" fill="#4F4F4F"/>
<circle cx="34.5" cy="7.5" r="2.5" fill="#EC758B"/>
</svg>
